<?xml version="1.0" encoding="UTF-8" standalone="no"?>
<svg
   xmlns:dc="http://purl.org/dc/elements/1.1/"
   xmlns:cc="http://creativecommons.org/ns#"
   xmlns:rdf="http://www.w3.org/1999/02/22-rdf-syntax-ns#"
   xmlns:svg="http://www.w3.org/2000/svg"
   xmlns="http://www.w3.org/2000/svg"
   xmlns:sodipodi="http://sodipodi.sourceforge.net/DTD/sodipodi-0.dtd"
   xmlns:inkscape="http://www.inkscape.org/namespaces/inkscape"
   inkscape:version="1.0 (4035a4fb49, 2020-05-01)"
   sodipodi:docname="star-hollow.svg"
   id="svg4"
   version="1.1"
   fill="none"
   viewBox="0 0 19.684991 18.867583"
   height="628.91943"
   width="656.16638">
  <metadata
     id="metadata10">
    <rdf:RDF>
      <cc:Work
         rdf:about="">
        <dc:format>image/svg+xml</dc:format>
        <dc:type
           rdf:resource="http://purl.org/dc/dcmitype/StillImage" />
        <dc:title></dc:title>
      </cc:Work>
    </rdf:RDF>
  </metadata>
  <defs
     id="defs8" />
  <sodipodi:namedview
     inkscape:current-layer="svg4"
     inkscape:window-maximized="1"
     inkscape:window-y="-8"
     inkscape:window-x="-8"
     inkscape:cy="316.65639"
     inkscape:cx="328.09014"
     inkscape:zoom="0.94125"
     fit-margin-bottom="0"
     fit-margin-right="0"
     fit-margin-left="0"
     fit-margin-top="0"
     showgrid="false"
     id="namedview6"
     inkscape:window-height="1377"
     inkscape:window-width="2560"
     inkscape:pageshadow="2"
     inkscape:pageopacity="0"
     guidetolerance="10"
     gridtolerance="10"
     objecttolerance="10"
     borderopacity="1"
     bordercolor="#666666"
     pagecolor="#ffffff" />
  <path
     id="path2"
     stroke-linejoin="round"
     stroke-linecap="round"
     stroke-width="2"
     stroke="#000000"
     d="m 9.1118043,1.9108418 c 0.2315,-0.51938 0.3473,-0.77907 0.5085,-0.85904 0.14,-0.0694801 0.3044,-0.0694801 0.4443997,0 0.1612,0.07997 0.277,0.33966 0.5085,0.85904 l 1.844,4.13693 c 0.0685,0.15354 0.1027,0.23031 0.1557,0.2891 0.0468,0.05202 0.1041,0.09363 0.168,0.12211 0.0723,0.0322 0.1559,0.04102 0.3231,0.05866 l 4.5043,0.47541 c 0.5655,0.05968 0.8482,0.08952 0.9741,0.21811 0.1093,0.11169 0.1601,0.26809 0.1373,0.42273 -0.0262,0.178 -0.2374,0.3683 -0.6598,0.749 l -3.3647,3.0322002 c -0.1248,0.1125 -0.1873,0.1688 -0.2268,0.2373 -0.035,0.0607 -0.0569,0.128 -0.0642,0.1976 -0.0083,0.0787 0.0091,0.1609 0.044,0.3254 l 0.9398,4.4307 c 0.118,0.5563 0.177,0.8344 0.0936,0.9938 -0.0725,0.1386 -0.2055,0.2352 -0.3596,0.2613 -0.1774,0.03 -0.4237,-0.112 -0.9163,-0.3961 l -3.9235,-2.263 c -0.1456,-0.084 -0.2184,-0.1259 -0.2957997,-0.1424 -0.0685,-0.0145 -0.1393,-0.0145 -0.2078,0 -0.0774,0.0165 -0.1502,0.0584 -0.2958,0.1424 l -3.92348,2.263 c -0.49258,0.2841 -0.73887,0.4261 -0.91628,0.3961 -0.15411,-0.0261 -0.28715,-0.1227 -0.35959,-0.2613 -0.08339,-0.1594 -0.0244,-0.4375 0.09359,-0.9938 l 0.93976,-4.4307 c 0.03488,-0.1645 0.05232,-0.2467 0.04404,-0.3254 -0.00733,-0.0696 -0.0292,-0.1369 -0.0642,-0.1976 -0.03955,-0.0685 -0.10199,-0.1248 -0.22686,-0.2373 l -3.36462,-3.0322002 c -0.42241,-0.3807 -0.63362,-0.571 -0.65988,-0.749 -0.0228,-0.15464 0.02801,-0.31104 0.13735,-0.42273 0.12588,-0.12859 0.40863,-0.15843 0.97413,-0.21811 l 4.50429,-0.47541 c 0.16718,-0.01764 0.25076,-0.02646 0.32304,-0.05866 0.06395,-0.02848 0.12121,-0.07009 0.16807,-0.12211 0.05295,-0.05879 0.08717,-0.13556 0.15562,-0.2891 z" />
</svg>
